<?xml version="1.0" standalone="no"?>
<!DOCTYPE svg PUBLIC "-//W3C//DTD SVG 1.1//EN"
"http://www.w3.org/TR/2001/REC-SVG-20010904/DTD/svg10.dtd">
<?xml-stylesheet type="text/css" href="../scripts/tree.css" ?>
<svg width="600.0" height="644.0" viewBox="0 -72.0 600.0 644.0" version="1.1"
xmlns="http://www.w3.org/2000/svg" xmlns:xlink="http://www.w3.org/1999/xlink" onload="startup(evt)">
<text x='10' y='10' font-family="Arial" font-size="12" stroke-width="0" fill="red"></text>
<g>
<line style="stroke:rgb(99,99,99); stroke-width:3" x1="20.0" y1="250.0" x2="21.5" y2="250.0"/>
<text  x="31.5" y="254.0" id="" ></text>

<g><line style="stroke:rgb(99,99,99); stroke-width:3" x1="20.0" y1="20.0" x2="421.5" y2="20.0"/>
<text  x="431.5" y="24.0" id="S6" >S6</text>

<line style="stroke:rgb(99,99,99); stroke-width:3" x1="20.0" y1="112.0" x2="291.2674418293131" y2="112.0"/>
<text  x="301.2674418293131" y="116.0" id="S5" >S5</text>

<line style="stroke:rgb(99,99,99); stroke-width:3" x1="20.0" y1="342.0" x2="49.40697660335316" y2="342.0"/>
<text  x="59.40697660335316" y="346.0" id="" ></text>

<g><line style="stroke:rgb(99,99,99); stroke-width:3" x1="47.90697660335316" y1="296.0" x2="114.52325574451054" y2="296.0"/>
<text  x="124.52325574451054" y="300.0" id="" ></text>

<g><line style="stroke:rgb(99,99,99); stroke-width:3" x1="113.02325574451054" y1="250.0" x2="170.33720923028662" y2="250.0"/>
<text  x="180.33720923028662" y="254.0" id="" ></text>

<g><line style="stroke:rgb(99,99,99); stroke-width:3" x1="168.83720923028662" y1="204.0" x2="281.9651162018388" y2="204.0"/>
<text  x="291.9651162018388" y="208.0" id="S1" >S1</text>

<line style="stroke:rgb(99,99,99); stroke-width:3" x1="168.83720923028662" y1="296.0" x2="281.9651162018388" y2="296.0"/>
<text  x="291.9651162018388" y="300.0" id="S2" >S2</text>

<line style="stroke:rgb(99,99,99); stroke-width:3" x1="170.33720923028662" y1="204.0" x2="170.33720923028662" y2="296.0"/>
</g><line style="stroke:rgb(99,99,99); stroke-width:3" x1="113.02325574451054" y1="388.0" x2="281.9651162018388" y2="388.0"/>
<text  x="291.9651162018388" y="392.0" id="S4" >S4</text>

<line style="stroke:rgb(99,99,99); stroke-width:3" x1="114.52325574451054" y1="250.0" x2="114.52325574451054" y2="388.0"/>
</g><line style="stroke:rgb(99,99,99); stroke-width:3" x1="47.90697660335316" y1="480.0" x2="300.5697674009735" y2="480.0"/>
<text  x="310.5697674009735" y="484.0" id="S3" >S3</text>

<line style="stroke:rgb(99,99,99); stroke-width:3" x1="49.40697660335316" y1="296.0" x2="49.40697660335316" y2="480.0"/>
</g><line style="stroke:rgb(99,99,99); stroke-width:3" x1="21.5" y1="20.0" x2="21.5" y2="342.0"/>
</g>
</g>
</svg>

