<?xml version="1.0" standalone="no"?>
<!DOCTYPE svg PUBLIC "-//W3C//DTD SVG 1.1//EN"
"http://www.w3.org/TR/2001/REC-SVG-20010904/DTD/svg10.dtd">
<?xml-stylesheet type="text/css" href="../scripts/tree.css" ?>
<svg width="600.0" height="495.0" viewBox="0 2.5 600.0 495.0" version="1.1"
xmlns="http://www.w3.org/2000/svg" xmlns:xlink="http://www.w3.org/1999/xlink" onload="startup(evt)">
<text x='10' y='10' font-family="Arial" font-size="12" stroke-width="0" fill="red"></text>
<g>
<line style="stroke:rgb(99,99,99); stroke-width:3" x1="20.0" y1="250.0" x2="21.5" y2="250.0"/>
<text  x="31.5" y="254.0" id="" ></text>

<g><line style="stroke:rgb(99,99,99); stroke-width:3" x1="20.0" y1="242.5" x2="59.437036656036284" y2="242.5"/>
<text  x="69.43703665603628" y="246.5" id="" ></text>

<g><line style="stroke:rgb(99,99,99); stroke-width:3" x1="57.937036656036284" y1="227.5" x2="75.0239409125175" y2="227.5"/>
<text  x="85.0239409125175" y="231.5" id="" ></text>

<g><line style="stroke:rgb(99,99,99); stroke-width:3" x1="73.5239409125175" y1="17.5" x2="324.0708349898987" y2="17.5"/>
<text  x="334.0708349898987" y="21.5" id="Chlorokybu" >Chlorokybu</text>

<line style="stroke:rgb(99,99,99); stroke-width:3" x1="73.5239409125175" y1="235.0" x2="83.57706908332548" y2="235.0"/>
<text  x="93.57706908332548" y="239.0" id="" ></text>

<g><line style="stroke:rgb(99,99,99); stroke-width:3" x1="82.07706908332548" y1="227.5" x2="86.69665815041589" y2="227.5"/>
<text  x="96.69665815041589" y="231.5" id="" ></text>

<g><line style="stroke:rgb(99,99,99); stroke-width:3" x1="85.19665815041589" y1="212.5" x2="89.12644266466617" y2="212.5"/>
<text  x="99.12644266466617" y="216.5" id="" ></text>

<g><line style="stroke:rgb(99,99,99); stroke-width:3" x1="87.62644266466617" y1="47.5" x2="95.90414319947362" y2="47.5"/>
<text  x="105.90414319947362" y="51.5" id="" ></text>

<g><line style="stroke:rgb(99,99,99); stroke-width:3" x1="94.40414319947362" y1="32.5" x2="344.95103727685483" y2="32.5"/>
<text  x="354.95103727685483" y="36.5" id="Spirogyra" >Spirogyra</text>

<line style="stroke:rgb(99,99,99); stroke-width:3" x1="94.40414319947362" y1="55.0" x2="108.31484172827751" y2="55.0"/>
<text  x="118.31484172827751" y="59.0" id="" ></text>

<g><line style="stroke:rgb(99,99,99); stroke-width:3" x1="106.81484172827751" y1="47.5" x2="357.3617358056587" y2="47.5"/>
<text  x="367.3617358056587" y="51.5" id="Closterium" >Closterium</text>

<line style="stroke:rgb(99,99,99); stroke-width:3" x1="106.81484172827751" y1="62.5" x2="357.3617358056587" y2="62.5"/>
<text  x="367.3617358056587" y="66.5" id="Penium" >Penium</text>

<line style="stroke:rgb(99,99,99); stroke-width:3" x1="108.31484172827751" y1="47.5" x2="108.31484172827751" y2="62.5"/>
</g><line style="stroke:rgb(99,99,99); stroke-width:3" x1="95.90414319947362" y1="32.5" x2="95.90414319947362" y2="55.0"/>
</g><line style="stroke:rgb(99,99,99); stroke-width:3" x1="87.62644266466617" y1="235.0" x2="90.74165013214359" y2="235.0"/>
<text  x="100.74165013214359" y="239.0" id="" ></text>

<g><line style="stroke:rgb(99,99,99); stroke-width:3" x1="89.24165013214359" y1="220.0" x2="103.96363275434312" y2="220.0"/>
<text  x="113.96363275434312" y="224.0" id="" ></text>

<g><line style="stroke:rgb(99,99,99); stroke-width:3" x1="102.46363275434312" y1="100.0" x2="106.62749367714903" y2="100.0"/>
<text  x="116.62749367714903" y="104.0" id="" ></text>

<g><line style="stroke:rgb(99,99,99); stroke-width:3" x1="105.12749367714903" y1="77.5" x2="355.67438775453024" y2="77.5"/>
<text  x="365.67438775453024" y="81.5" id="Huperzia" >Huperzia</text>

<line style="stroke:rgb(99,99,99); stroke-width:3" x1="105.12749367714903" y1="107.5" x2="114.53096918881761" y2="107.5"/>
<text  x="124.53096918881761" y="111.5" id="" ></text>

<g><line style="stroke:rgb(99,99,99); stroke-width:3" x1="113.03096918881761" y1="92.5" x2="363.57786326619885" y2="92.5"/>
<text  x="373.57786326619885" y="96.5" id="Marchantia" >Marchantia</text>

<line style="stroke:rgb(99,99,99); stroke-width:3" x1="113.03096918881761" y1="115.0" x2="161.26240511226862" y2="115.0"/>
<text  x="171.26240511226862" y="119.0" id="" ></text>

<g><line style="stroke:rgb(99,99,99); stroke-width:3" x1="159.76240511226862" y1="107.5" x2="410.30929918964983" y2="107.5"/>
<text  x="420.30929918964983" y="111.5" id="Ceratodon" >Ceratodon</text>

<line style="stroke:rgb(99,99,99); stroke-width:3" x1="159.76240511226862" y1="122.5" x2="410.30929918964983" y2="122.5"/>
<text  x="420.30929918964983" y="126.5" id="Physcomitr" >Physcomitr</text>

<line style="stroke:rgb(99,99,99); stroke-width:3" x1="161.26240511226862" y1="107.5" x2="161.26240511226862" y2="122.5"/>
</g><line style="stroke:rgb(99,99,99); stroke-width:3" x1="114.53096918881761" y1="92.5" x2="114.53096918881761" y2="115.0"/>
</g><line style="stroke:rgb(99,99,99); stroke-width:3" x1="106.62749367714903" y1="77.5" x2="106.62749367714903" y2="107.5"/>
</g><line style="stroke:rgb(99,99,99); stroke-width:3" x1="102.46363275434312" y1="250.0" x2="110.24644943874169" y2="250.0"/>
<text  x="120.24644943874169" y="254.0" id="" ></text>

<g><line style="stroke:rgb(99,99,99); stroke-width:3" x1="108.74644943874169" y1="152.5" x2="142.812734480245" y2="152.5"/>
<text  x="152.812734480245" y="156.5" id="" ></text>

<g><line style="stroke:rgb(99,99,99); stroke-width:3" x1="141.312734480245" y1="137.5" x2="391.85962855762625" y2="137.5"/>
<text  x="401.85962855762625" y="141.5" id="Ceratopter" >Ceratopter</text>

<line style="stroke:rgb(99,99,99); stroke-width:3" x1="141.312734480245" y1="160.0" x2="149.85672148857543" y2="160.0"/>
<text  x="159.85672148857543" y="164.0" id="" ></text>

<g><line style="stroke:rgb(99,99,99); stroke-width:3" x1="148.35672148857543" y1="152.5" x2="398.90361556595667" y2="152.5"/>
<text  x="408.90361556595667" y="156.5" id="Pteridium" >Pteridium</text>

<line style="stroke:rgb(99,99,99); stroke-width:3" x1="148.35672148857543" y1="167.5" x2="398.90361556595667" y2="167.5"/>
<text  x="408.90361556595667" y="171.5" id="Adiantum" >Adiantum</text>

<line style="stroke:rgb(99,99,99); stroke-width:3" x1="149.85672148857543" y1="152.5" x2="149.85672148857543" y2="167.5"/>
</g><line style="stroke:rgb(99,99,99); stroke-width:3" x1="142.812734480245" y1="137.5" x2="142.812734480245" y2="160.0"/>
</g><line style="stroke:rgb(99,99,99); stroke-width:3" x1="108.74644943874169" y1="272.5" x2="135.684929356119" y2="272.5"/>
<text  x="145.684929356119" y="276.5" id="" ></text>

<g><line style="stroke:rgb(99,99,99); stroke-width:3" x1="134.184929356119" y1="205.0" x2="150.81829154660818" y2="205.0"/>
<text  x="160.81829154660818" y="209.0" id="" ></text>

<g><line style="stroke:rgb(99,99,99); stroke-width:3" x1="149.31829154660818" y1="197.5" x2="152.74525038171623" y2="197.5"/>
<text  x="162.74525038171623" y="201.5" id="" ></text>

<g><line style="stroke:rgb(99,99,99); stroke-width:3" x1="151.24525038171623" y1="182.5" x2="401.79214445909747" y2="182.5"/>
<text  x="411.79214445909747" y="186.5" id="Nuphar" >Nuphar</text>

<line style="stroke:rgb(99,99,99); stroke-width:3" x1="151.24525038171623" y1="205.0" x2="172.45310592261876" y2="205.0"/>
<text  x="182.45310592261876" y="209.0" id="" ></text>

<g><line style="stroke:rgb(99,99,99); stroke-width:3" x1="170.95310592261876" y1="197.5" x2="421.5" y2="197.5"/>
<text  x="431.5" y="201.5" id="Ricinus" >Ricinus</text>

<line style="stroke:rgb(99,99,99); stroke-width:3" x1="170.95310592261876" y1="212.5" x2="421.5" y2="212.5"/>
<text  x="431.5" y="216.5" id="Vitis" >Vitis</text>

<line style="stroke:rgb(99,99,99); stroke-width:3" x1="172.45310592261876" y1="197.5" x2="172.45310592261876" y2="212.5"/>
</g><line style="stroke:rgb(99,99,99); stroke-width:3" x1="152.74525038171623" y1="182.5" x2="152.74525038171623" y2="205.0"/>
</g><line style="stroke:rgb(99,99,99); stroke-width:3" x1="149.31829154660818" y1="227.5" x2="399.8651856239894" y2="227.5"/>
<text  x="409.8651856239894" y="231.5" id="Amborella" >Amborella</text>

<line style="stroke:rgb(99,99,99); stroke-width:3" x1="150.81829154660818" y1="197.5" x2="150.81829154660818" y2="227.5"/>
</g><line style="stroke:rgb(99,99,99); stroke-width:3" x1="134.184929356119" y1="302.5" x2="140.96718630762314" y2="302.5"/>
<text  x="150.96718630762314" y="306.5" id="" ></text>

<g><line style="stroke:rgb(99,99,99); stroke-width:3" x1="139.46718630762314" y1="250.0" x2="162.1142285056446" y2="250.0"/>
<text  x="172.1142285056446" y="254.0" id="" ></text>

<g><line style="stroke:rgb(99,99,99); stroke-width:3" x1="160.6142285056446" y1="242.5" x2="411.1611225830258" y2="242.5"/>
<text  x="421.1611225830258" y="246.5" id="Gnetum" >Gnetum</text>

<line style="stroke:rgb(99,99,99); stroke-width:3" x1="160.6142285056446" y1="257.5" x2="411.1611225830258" y2="257.5"/>
<text  x="421.1611225830258" y="261.5" id="Welwitschi" >Welwitschi</text>

<line style="stroke:rgb(99,99,99); stroke-width:3" x1="162.1142285056446" y1="242.5" x2="162.1142285056446" y2="257.5"/>
</g><line style="stroke:rgb(99,99,99); stroke-width:3" x1="139.46718630762314" y1="317.5" x2="143.65127537260355" y2="317.5"/>
<text  x="153.65127537260355" y="321.5" id="" ></text>

<g><line style="stroke:rgb(99,99,99); stroke-width:3" x1="142.15127537260355" y1="287.5" x2="150.72766614904114" y2="287.5"/>
<text  x="160.72766614904114" y="291.5" id="" ></text>

<g><line style="stroke:rgb(99,99,99); stroke-width:3" x1="149.22766614904114" y1="272.5" x2="399.77456022642235" y2="272.5"/>
<text  x="409.77456022642235" y="276.5" id="Ginkgo" >Ginkgo</text>

<line style="stroke:rgb(99,99,99); stroke-width:3" x1="149.22766614904114" y1="295.0" x2="156.73406845289094" y2="295.0"/>
<text  x="166.73406845289094" y="299.0" id="" ></text>

<g><line style="stroke:rgb(99,99,99); stroke-width:3" x1="155.23406845289094" y1="287.5" x2="405.7809625302722" y2="287.5"/>
<text  x="415.7809625302722" y="291.5" id="Zamia" >Zamia</text>

<line style="stroke:rgb(99,99,99); stroke-width:3" x1="155.23406845289094" y1="302.5" x2="405.7809625302722" y2="302.5"/>
<text  x="415.7809625302722" y="306.5" id="Cycas" >Cycas</text>

<line style="stroke:rgb(99,99,99); stroke-width:3" x1="156.73406845289094" y1="287.5" x2="156.73406845289094" y2="302.5"/>
</g><line style="stroke:rgb(99,99,99); stroke-width:3" x1="150.72766614904114" y1="272.5" x2="150.72766614904114" y2="295.0"/>
</g><line style="stroke:rgb(99,99,99); stroke-width:3" x1="142.15127537260355" y1="340.0" x2="148.50735774458704" y2="340.0"/>
<text  x="158.50735774458704" y="344.0" id="" ></text>

<g><line style="stroke:rgb(99,99,99); stroke-width:3" x1="147.00735774458704" y1="332.5" x2="159.65450302035077" y2="332.5"/>
<text  x="169.65450302035077" y="336.5" id="" ></text>

<g><line style="stroke:rgb(99,99,99); stroke-width:3" x1="158.15450302035077" y1="325.0" x2="169.5764759366394" y2="325.0"/>
<text  x="179.5764759366394" y="329.0" id="" ></text>

<g><line style="stroke:rgb(99,99,99); stroke-width:3" x1="168.0764759366394" y1="317.5" x2="418.6233700140206" y2="317.5"/>
<text  x="428.6233700140206" y="321.5" id="Sequoia" >Sequoia</text>

<line style="stroke:rgb(99,99,99); stroke-width:3" x1="168.0764759366394" y1="332.5" x2="418.6233700140206" y2="332.5"/>
<text  x="428.6233700140206" y="336.5" id="Sciadopity" >Sciadopity</text>

<line style="stroke:rgb(99,99,99); stroke-width:3" x1="169.5764759366394" y1="317.5" x2="169.5764759366394" y2="332.5"/>
</g><line style="stroke:rgb(99,99,99); stroke-width:3" x1="158.15450302035077" y1="347.5" x2="408.70139709773196" y2="347.5"/>
<text  x="418.70139709773196" y="351.5" id="Podocarpus" >Podocarpus</text>

<line style="stroke:rgb(99,99,99); stroke-width:3" x1="159.65450302035077" y1="325.0" x2="159.65450302035077" y2="347.5"/>
</g><line style="stroke:rgb(99,99,99); stroke-width:3" x1="147.00735774458704" y1="362.5" x2="397.55425182196825" y2="362.5"/>
<text  x="407.55425182196825" y="366.5" id="Pinus" >Pinus</text>

<line style="stroke:rgb(99,99,99); stroke-width:3" x1="148.50735774458704" y1="332.5" x2="148.50735774458704" y2="362.5"/>
</g><line style="stroke:rgb(99,99,99); stroke-width:3" x1="143.65127537260355" y1="287.5" x2="143.65127537260355" y2="340.0"/>
</g><line style="stroke:rgb(99,99,99); stroke-width:3" x1="140.96718630762314" y1="250.0" x2="140.96718630762314" y2="317.5"/>
</g><line style="stroke:rgb(99,99,99); stroke-width:3" x1="135.684929356119" y1="205.0" x2="135.684929356119" y2="302.5"/>
</g><line style="stroke:rgb(99,99,99); stroke-width:3" x1="110.24644943874169" y1="152.5" x2="110.24644943874169" y2="272.5"/>
</g><line style="stroke:rgb(99,99,99); stroke-width:3" x1="103.96363275434312" y1="100.0" x2="103.96363275434312" y2="250.0"/>
</g><line style="stroke:rgb(99,99,99); stroke-width:3" x1="89.24165013214359" y1="385.0" x2="102.08916747013114" y2="385.0"/>
<text  x="112.08916747013114" y="389.0" id="" ></text>

<g><line style="stroke:rgb(99,99,99); stroke-width:3" x1="100.58916747013114" y1="377.5" x2="351.1360615475123" y2="377.5"/>
<text  x="361.1360615475123" y="381.5" id="Coleochaet" >Coleochaet</text>

<line style="stroke:rgb(99,99,99); stroke-width:3" x1="100.58916747013114" y1="392.5" x2="351.1360615475123" y2="392.5"/>
<text  x="361.1360615475123" y="396.5" id="Chaetospha" >Chaetospha</text>

<line style="stroke:rgb(99,99,99); stroke-width:3" x1="102.08916747013114" y1="377.5" x2="102.08916747013114" y2="392.5"/>
</g><line style="stroke:rgb(99,99,99); stroke-width:3" x1="90.74165013214359" y1="220.0" x2="90.74165013214359" y2="385.0"/>
</g><line style="stroke:rgb(99,99,99); stroke-width:3" x1="89.12644266466617" y1="47.5" x2="89.12644266466617" y2="235.0"/>
</g><line style="stroke:rgb(99,99,99); stroke-width:3" x1="85.19665815041589" y1="415.0" x2="129.51902635255118" y2="415.0"/>
<text  x="139.51902635255118" y="419.0" id="" ></text>

<g><line style="stroke:rgb(99,99,99); stroke-width:3" x1="128.01902635255118" y1="407.5" x2="378.56592042993236" y2="407.5"/>
<text  x="388.56592042993236" y="411.5" id="Chara" >Chara</text>

<line style="stroke:rgb(99,99,99); stroke-width:3" x1="128.01902635255118" y1="422.5" x2="378.56592042993236" y2="422.5"/>
<text  x="388.56592042993236" y="426.5" id="Nitella" >Nitella</text>

<line style="stroke:rgb(99,99,99); stroke-width:3" x1="129.51902635255118" y1="407.5" x2="129.51902635255118" y2="422.5"/>
</g><line style="stroke:rgb(99,99,99); stroke-width:3" x1="86.69665815041589" y1="212.5" x2="86.69665815041589" y2="415.0"/>
</g><line style="stroke:rgb(99,99,99); stroke-width:3" x1="82.07706908332548" y1="437.5" x2="332.6239631607067" y2="437.5"/>
<text  x="342.6239631607067" y="441.5" id="Klebsormid" >Klebsormid</text>

<line style="stroke:rgb(99,99,99); stroke-width:3" x1="83.57706908332548" y1="227.5" x2="83.57706908332548" y2="437.5"/>
</g><line style="stroke:rgb(99,99,99); stroke-width:3" x1="75.0239409125175" y1="17.5" x2="75.0239409125175" y2="235.0"/>
</g><line style="stroke:rgb(99,99,99); stroke-width:3" x1="57.937036656036284" y1="460.0" x2="96.69104836912679" y2="460.0"/>
<text  x="106.69104836912679" y="464.0" id="" ></text>

<g><line style="stroke:rgb(99,99,99); stroke-width:3" x1="95.19104836912679" y1="452.5" x2="345.737942446508" y2="452.5"/>
<text  x="355.737942446508" y="456.5" id="Chlorella" >Chlorella</text>

<line style="stroke:rgb(99,99,99); stroke-width:3" x1="95.19104836912679" y1="467.5" x2="345.737942446508" y2="467.5"/>
<text  x="355.737942446508" y="471.5" id="Volvox" >Volvox</text>

<line style="stroke:rgb(99,99,99); stroke-width:3" x1="96.69104836912679" y1="452.5" x2="96.69104836912679" y2="467.5"/>
</g><line style="stroke:rgb(99,99,99); stroke-width:3" x1="59.437036656036284" y1="227.5" x2="59.437036656036284" y2="460.0"/>
</g><line style="stroke:rgb(99,99,99); stroke-width:3" x1="20.0" y1="482.5" x2="270.54689407738124" y2="482.5"/>
<text  x="280.54689407738124" y="486.5" id="Micromonas" >Micromonas</text>

<line style="stroke:rgb(99,99,99); stroke-width:3" x1="21.5" y1="242.5" x2="21.5" y2="482.5"/>
</g>
</g>
</svg>

